<?xml version="1.0" encoding="UTF-8"?>
<svg xmlns="http://www.w3.org/2000/svg" xmlns:xlink="http://www.w3.org/1999/xlink" width="40px" height="40px" viewBox="0 0 40 40" version="1.1">
<g id="surface1">
<path style=" stroke:none;fill-rule:evenodd;fill:rgb(0%,0%,0%);fill-opacity:1;" d="M 36.667969 20 C 36.667969 29.203125 29.203125 36.667969 20 36.667969 C 10.796875 36.667969 3.332031 29.203125 3.332031 20 C 3.332031 10.796875 10.796875 3.332031 20 3.332031 C 29.203125 3.332031 36.667969 10.796875 36.667969 20 Z M 20.597656 15.636719 C 18.976562 16.3125 15.734375 17.707031 10.878906 19.824219 C 10.089844 20.136719 9.675781 20.445312 9.636719 20.746094 C 9.574219 21.253906 10.210938 21.453125 11.074219 21.722656 C 11.191406 21.761719 11.3125 21.800781 11.4375 21.839844 C 12.289062 22.117188 13.433594 22.441406 14.03125 22.453125 C 14.570312 22.464844 15.171875 22.242188 15.835938 21.785156 C 20.375 18.722656 22.71875 17.171875 22.867188 17.136719 C 22.972656 17.113281 23.113281 17.085938 23.210938 17.171875 C 23.308594 17.257812 23.300781 17.421875 23.289062 17.464844 C 23.226562 17.734375 20.734375 20.054688 19.441406 21.253906 C 19.039062 21.625 18.753906 21.890625 18.699219 21.953125 C 18.566406 22.089844 18.433594 22.214844 18.304688 22.339844 C 17.515625 23.101562 16.921875 23.671875 18.339844 24.605469 C 19.019531 25.054688 19.5625 25.425781 20.105469 25.796875 C 20.699219 26.199219 21.292969 26.601562 22.058594 27.105469 C 22.253906 27.234375 22.4375 27.367188 22.621094 27.496094 C 23.3125 27.988281 23.929688 28.429688 24.699219 28.359375 C 25.144531 28.316406 25.601562 27.898438 25.835938 26.652344 C 26.390625 23.699219 27.472656 17.304688 27.726562 14.667969 C 27.746094 14.4375 27.71875 14.140625 27.699219 14.011719 C 27.675781 13.882812 27.628906 13.699219 27.460938 13.5625 C 27.261719 13.398438 26.953125 13.363281 26.8125 13.367188 C 26.1875 13.378906 25.226562 13.710938 20.597656 15.636719 Z M 20.597656 15.636719 "/>
</g>
</svg>
