<?xml version="1.0" encoding="UTF-8"?>
<svg xmlns="http://www.w3.org/2000/svg" xmlns:xlink="http://www.w3.org/1999/xlink" width="30px" height="30px" viewBox="0 0 30 30" version="1.1">
<g id="surface1">
<path style=" stroke:none;fill-rule:nonzero;fill:rgb(0%,0%,0%);fill-opacity:1;" d="M 22.199219 17.238281 C 22.140625 17.210938 19.953125 16.132812 19.5625 15.992188 C 19.40625 15.9375 19.234375 15.882812 19.054688 15.882812 C 18.757812 15.882812 18.511719 16.027344 18.316406 16.316406 C 18.101562 16.640625 17.4375 17.414062 17.234375 17.644531 C 17.207031 17.675781 17.171875 17.710938 17.148438 17.710938 C 17.128906 17.710938 16.792969 17.574219 16.6875 17.527344 C 14.34375 16.511719 12.5625 14.058594 12.316406 13.644531 C 12.28125 13.585938 12.28125 13.558594 12.28125 13.558594 C 12.289062 13.527344 12.367188 13.449219 12.410156 13.40625 C 12.527344 13.289062 12.65625 13.136719 12.78125 12.984375 C 12.839844 12.914062 12.898438 12.84375 12.957031 12.773438 C 13.140625 12.5625 13.21875 12.402344 13.3125 12.210938 L 13.363281 12.113281 C 13.589844 11.660156 13.394531 11.277344 13.332031 11.152344 C 13.28125 11.050781 12.359375 8.820312 12.261719 8.585938 C 12.023438 8.019531 11.710938 7.757812 11.277344 7.757812 C 11.238281 7.757812 11.277344 7.757812 11.109375 7.765625 C 10.902344 7.773438 9.785156 7.921875 9.289062 8.234375 C 8.765625 8.5625 7.878906 9.617188 7.878906 11.472656 C 7.878906 13.140625 8.9375 14.714844 9.390625 15.3125 C 9.402344 15.328125 9.425781 15.359375 9.453125 15.402344 C 11.195312 17.945312 13.367188 19.832031 15.566406 20.710938 C 17.683594 21.554688 18.6875 21.652344 19.257812 21.652344 C 19.496094 21.652344 19.6875 21.632812 19.855469 21.617188 L 19.964844 21.609375 C 20.695312 21.542969 22.304688 20.710938 22.671875 19.691406 C 22.957031 18.890625 23.035156 18.019531 22.84375 17.699219 C 22.710938 17.484375 22.484375 17.375 22.199219 17.238281 Z M 22.199219 17.238281 "/>
<path style=" stroke:none;fill-rule:nonzero;fill:rgb(0%,0%,0%);fill-opacity:1;" d="M 15.265625 0 C 7.140625 0 0.53125 6.558594 0.53125 14.625 C 0.53125 17.234375 1.230469 19.785156 2.550781 22.019531 L 0.0195312 29.484375 C -0.0273438 29.625 0.0078125 29.777344 0.113281 29.882812 C 0.1875 29.960938 0.285156 30 0.390625 30 C 0.429688 30 0.46875 29.992188 0.507812 29.980469 L 8.292969 27.507812 C 10.421875 28.644531 12.828125 29.246094 15.265625 29.246094 C 23.390625 29.246094 30 22.6875 30 14.625 C 30 6.558594 23.390625 0 15.265625 0 Z M 15.265625 26.199219 C 12.972656 26.199219 10.753906 25.539062 8.84375 24.285156 C 8.78125 24.242188 8.707031 24.222656 8.628906 24.222656 C 8.589844 24.222656 8.550781 24.226562 8.511719 24.242188 L 4.613281 25.480469 L 5.871094 21.765625 C 5.914062 21.644531 5.890625 21.511719 5.816406 21.410156 C 4.363281 19.425781 3.59375 17.078125 3.59375 14.625 C 3.59375 8.242188 8.832031 3.046875 15.265625 3.046875 C 21.699219 3.046875 26.9375 8.242188 26.9375 14.625 C 26.9375 21.007812 21.703125 26.199219 15.265625 26.199219 Z M 15.265625 26.199219 "/>
</g>
</svg>
